<svg width="45" height="52" viewBox="0 0 45 52" fill="none" xmlns="http://www.w3.org/2000/svg">
<path fill-rule="evenodd" clip-rule="evenodd" d="M1.46496 13.2136L22.5016 25.4343L43.5351 13.2136L22.5016 0.992883L1.46496 13.2136ZM0.24416 12.7881L22.2575 0L22.7458 1.57756e-05L44.7559 12.7881V13.6391L22.7458 26.4272L22.2575 26.4272L0.24416 13.6391L0.24416 12.7881Z" fill="white"/>
<path fill-rule="evenodd" clip-rule="evenodd" d="M0 13.2136L0.732473 12.788L22.7458 25.5761L22.9899 26.0016V51.5745L22.2575 52L0.24416 39.2119L0 38.7864V13.2136ZM0.976633 14.0646V38.5027L22.0133 50.7234V26.2853L0.976633 14.0646Z" fill="white"/>
<path fill-rule="evenodd" clip-rule="evenodd" d="M22.9899 26.2853V50.7234L44.0234 38.5028V14.0646L22.9899 26.2853ZM22.2574 25.5761L44.2675 12.7881L45 13.2136V38.7864L44.7559 39.2119L22.7458 52L22.0133 51.5745V26.0016L22.2574 25.5761Z" fill="white"/>
<path fill-rule="evenodd" clip-rule="evenodd" d="M22.6237 0.212761V26.0726L0.366237 38.9992V13.1427L22.6237 0.212761ZM0.610396 13.2845V38.5737L22.3795 25.9307V0.638276L0.610396 13.2845Z" fill="white"/>
<path fill-rule="evenodd" clip-rule="evenodd" d="M22.3795 0.212745L44.6338 13.1427V38.9992L22.3795 26.0726V0.212745ZM22.6237 0.638291V25.9307L44.3896 38.5737V13.2845L22.6237 0.638291Z" fill="white"/>
<path fill-rule="evenodd" clip-rule="evenodd" d="M15.8651 14.7629L16.147 14.5991H28.8563L29.1382 14.763L35.4896 25.8379L35.4896 26.1654L29.1382 37.237L28.8563 37.4008H16.147L15.8651 37.2371L9.51047 26.1654L9.51045 25.8378L15.8651 14.7629ZM16.335 15.2543L10.1683 26.0016L16.3349 36.7457H28.6683L34.8318 26.0016L28.6683 15.2543H16.335Z" fill="white"/>
<path fill-rule="evenodd" clip-rule="evenodd" d="M22.8775 26.0016L28.8562 36.4181L34.8318 26.0016L28.8562 15.582L22.8775 26.0016ZM22.2197 25.8378L28.5743 14.7629L29.1382 14.763L35.4896 25.8379L35.4896 26.1654L29.1382 37.237L28.5743 37.2371L22.2197 26.1654L22.2197 25.8378Z" fill="white"/>
<path fill-rule="evenodd" clip-rule="evenodd" d="M15.8651 14.7629L16.147 14.5991H28.8563L29.1382 15.0905L22.7836 26.1654L22.5016 26.3292H9.79238L9.51045 25.8378L15.8651 14.7629ZM16.335 15.2543L10.3562 25.6741H22.3137L28.2924 15.2543H16.335Z" fill="white"/>
<path fill-rule="evenodd" clip-rule="evenodd" d="M9.51047 26.1654L9.79238 25.6741H22.5016L22.7835 25.8378L29.1382 36.9095L28.8563 37.4008H16.147L15.8651 37.2371L9.51047 26.1654ZM10.3563 26.3292L16.3349 36.7457L28.2923 36.7457L22.3137 26.3292H10.3563Z" fill="white"/>
<path fill-rule="evenodd" clip-rule="evenodd" d="M16.0765 14.8858H28.8798L35.2781 26.0426H22.4781L16.0765 14.8858ZM16.2175 14.9677L22.5251 25.9607H35.1372L28.8328 14.9677H16.2175Z" fill="white"/>
<path fill-rule="evenodd" clip-rule="evenodd" d="M22.4781 25.9607H35.2781L28.8798 37.1142H16.0765L22.4781 25.9607ZM22.5251 26.0426L16.2175 37.0323H28.8328L35.1372 26.0426H22.5251Z" fill="white"/>
<path fill-rule="evenodd" clip-rule="evenodd" d="M16.1426 14.9674L0.483918 13.2543L0.492715 13.1729L16.1514 14.886L16.1426 14.9674Z" fill="white"/>
<path fill-rule="evenodd" clip-rule="evenodd" d="M28.819 14.9433L22.4644 0.442038L22.5389 0.408999L28.8935 14.9102L28.819 14.9433Z" fill="white"/>
<path fill-rule="evenodd" clip-rule="evenodd" d="M35.1748 25.9774L44.4788 13.1894L44.5445 13.2377L35.2405 26.0258L35.1748 25.9774Z" fill="white"/>
<path fill-rule="evenodd" clip-rule="evenodd" d="M28.8607 37.0326L44.5161 38.7457L44.5073 38.8271L28.8519 37.114L28.8607 37.0326Z" fill="white"/>
<path fill-rule="evenodd" clip-rule="evenodd" d="M16.1842 37.0568L22.5389 51.558L22.4644 51.591L16.1098 37.0898L16.1842 37.0568Z" fill="white"/>
<path fill-rule="evenodd" clip-rule="evenodd" d="M9.82521 26.0258L0.521149 38.8106L0.455485 38.7622L9.75954 25.9774L9.82521 26.0258Z" fill="white"/>
</svg>
