<svg width="24" height="26" viewBox="0 0 24 26" fill="none" xmlns="http://www.w3.org/2000/svg">
<path d="M16.2539 14.4619H7.76306L3.30267 21.6093C3.11458 21.878 3.19519 22.1467 3.2758 22.3079C3.32954 22.4422 3.51763 22.6572 3.86694 22.6572H20.15C20.4725 22.6572 20.6605 22.4691 20.7412 22.3079C20.8218 22.1735 20.9024 21.9048 20.7143 21.6093L16.2539 14.4619Z" fill="white"/>
<path d="M23.4283 19.9436L16.6033 8.98069C16.4153 8.65826 16.3078 8.28208 16.3078 7.9059V2.1289H17.0333C17.5438 2.1289 17.9468 1.72586 17.9468 1.21533C17.9468 0.704804 17.5438 0.301758 17.0333 0.301758H7.01084C6.50031 0.301758 6.09727 0.704804 6.09727 1.21533C6.09727 1.72586 6.50031 2.1289 7.01084 2.1289H7.73632V7.9059C7.73632 8.28208 7.62884 8.65826 7.44076 8.98069L0.588965 19.9436C-0.163389 21.1527 -0.190259 22.6037 0.481486 23.8397C1.1801 25.0757 2.41611 25.828 3.84021 25.828H20.1233C21.5474 25.828 22.8103 25.0757 23.482 23.8397C24.2075 22.6037 24.1538 21.1527 23.4283 19.9436ZM21.9236 22.9798C21.5474 23.6247 20.9025 24.0278 20.1502 24.0278H3.86708C3.11472 24.0278 2.44298 23.6247 2.09367 22.9798C1.7175 22.335 1.74437 21.5557 2.14741 20.9109L8.97233 9.94801C9.34851 9.33 9.56347 8.63139 9.56347 7.9059V2.1289H14.5075V7.9059C14.5075 8.63139 14.6956 9.33 15.0986 9.94801L21.9236 20.9109C22.2729 21.5289 22.2997 22.3081 21.9236 22.9798Z" fill="white"/>
</svg>
