<svg width="39" height="25" viewBox="0 0 39 25" fill="none" xmlns="http://www.w3.org/2000/svg">
<path fill-rule="evenodd" clip-rule="evenodd" d="M0.904484 19.8044V0.734193C0.904484 0.495489 1.09699 0.301758 1.33419 0.301758H37.6681C37.9053 0.301758 38.0978 0.495489 38.0978 0.734193V19.8044H33.0446V18.0833C33.0446 17.1285 32.2746 16.3536 31.3258 16.3536H26.5666C25.6179 16.3536 24.8478 17.1285 24.8478 18.0833V19.8044H0.904484ZM26.5662 19.8044V18.5158C26.5662 18.277 26.7587 18.0833 26.9959 18.0833H30.8959C31.1331 18.0833 31.3256 18.277 31.3256 18.5158V19.8044H26.5662ZM38.5703 21.5341C38.6837 21.5341 38.7937 21.5791 38.8745 21.6604C38.9553 21.7417 39 21.8507 39 21.9666V23.8693C39 23.9835 38.9553 24.0942 38.8745 24.1755C38.7937 24.2568 38.6855 24.3018 38.5703 24.3018H0.429706C0.316266 24.3018 0.206262 24.2568 0.125475 24.1755C0.0446925 24.0942 0 23.9852 0 23.8693V21.9666C0 21.8524 0.0446881 21.7417 0.125475 21.6604C0.206262 21.5791 0.314545 21.5341 0.429706 21.5341H38.5703Z" fill="white"/>
</svg>
